<svg width="103" height="103" viewBox="0 0 103 103" fill="none" xmlns="http://www.w3.org/2000/svg">
<path d="M32.754 0C34.8707 0 36.5393 1.6892 36.5393 3.72345C36.5393 5.2118 37.8062 6.40145 39.3203 6.40145H44.3209C51.9532 6.45295 58.1744 12.5506 58.2259 19.9975V20.9399C63.0206 20.9399 67.8255 21.0378 72.6768 21.0841C90.2126 21.0841 103 33.5883 103 50.8511V73.0322C103 90.3001 90.2126 102.799 72.6768 102.799C65.6522 102.954 58.6276 103 51.5515 103C44.4754 103 37.3478 102.949 30.3232 102.799C12.7875 102.799 0 90.3001 0 73.0322V50.8563C0 33.5883 12.7875 21.0893 30.3747 21.0893C36.9976 20.9863 43.7647 20.8833 50.64 20.8833V20.0438C50.64 16.6191 47.756 13.8432 44.3209 13.8432H39.3203C33.6089 13.8432 28.9585 9.2803 28.9585 3.72345C28.9585 1.6892 30.6786 0 32.7489 0L32.754 0Z" fill="url(#paint0_linear_0_9955)"/>
<defs>
<linearGradient id="paint0_linear_0_9955" x1="58.0978" y1="-37.8958" x2="-17.6937" y2="51.9086" gradientUnits="userSpaceOnUse">
<stop stop-color="#5C8FFF"/>
<stop offset="1" stop-color="#C14BFF"/>
</linearGradient>
</defs>
</svg>
