<svg width="26" height="26" viewBox="0 0 26 26" fill="none" xmlns="http://www.w3.org/2000/svg">
<path d="M13.0181 0.000229166C12.0145 -0.0108243 11.0477 0.378381 10.3316 1.08179C9.61559 1.78519 9.20922 2.74486 9.20239 3.74858V8.99524H3.81575C1.73526 8.99209 0.0367955 10.6582 0 12.7384C0 14.8381 1.7316 16.4868 3.81575 16.4868H9.20758V21.7749C9.20758 23.8279 10.8873 25.5233 13.0233 25.5233C15.1038 25.5264 16.8023 23.8603 16.8391 21.7801V16.4868H22.1791C23.1836 16.4992 24.1517 16.1106 24.8689 15.4071C25.5861 14.7035 25.9932 13.7431 26 12.7384C25.9632 10.6582 24.2647 8.99209 22.1842 8.99524H16.8443V3.74858C16.8102 1.66436 15.1078 -0.00572065 13.0233 0.000229166H13.0181Z" fill="url(#paint0_linear_0_9956)"/>
<defs>
<linearGradient id="paint0_linear_0_9956" x1="14.6655" y1="-9.39052" x2="-4.05415" y2="13.2044" gradientUnits="userSpaceOnUse">
<stop stop-color="#5C8FFF"/>
<stop offset="1" stop-color="#C14BFF"/>
</linearGradient>
</defs>
</svg>
