<svg width="258" height="100" viewBox="0 0 258 100" fill="none" xmlns="http://www.w3.org/2000/svg">
<path fill-rule="evenodd" clip-rule="evenodd" d="M146.024 15.6847C148.329 15.6847 150.3 14.9144 151.938 13.3738C153.575 11.8333 154.394 9.98337 154.394 7.82415C154.394 5.68919 153.575 3.85142 151.938 2.31085C150.3 0.770285 148.317 0 145.988 0C143.707 0 141.742 0.770285 140.092 2.31085C138.442 3.85142 137.618 5.68919 137.618 7.82415C137.618 9.98337 138.442 11.8333 140.092 13.3738C141.742 14.9144 143.719 15.6847 146.024 15.6847ZM47.0905 76.4402C42.4566 78.7086 37.0586 79.8428 30.8963 79.8428C24.7098 79.8428 19.2996 78.7086 14.6657 76.4402C10.0319 74.1718 6.42915 70.9996 3.85749 66.9238C1.28583 62.848 0 58.0928 0 52.6584V4.25785H15.7575V51.3119C15.7575 54.1504 16.3822 56.6736 17.6316 58.8813C18.8811 61.0891 20.646 62.8237 22.9266 64.0853C25.2071 65.3469 27.8637 65.9776 30.8963 65.9776C33.9532 65.9776 36.6158 65.3469 38.8842 64.0853C41.1526 62.8237 42.9115 61.0891 44.161 58.8813C45.4104 56.6736 46.0351 54.1504 46.0351 51.3119V4.25785H61.7926V52.6584C61.7926 58.0928 60.5007 62.848 57.9169 66.9238C55.3331 70.9996 51.7243 74.1718 47.0905 76.4402ZM89.9741 46.4717V78.7873H74.4714V22.8901H89.2463V32.7522H89.9013C91.1387 29.5012 93.213 26.9235 96.1243 25.019C99.0356 23.1145 102.566 22.1623 106.714 22.1623C110.596 22.1623 113.98 23.0114 116.867 24.7097C119.754 26.408 121.999 28.828 123.6 31.9698C125.201 35.1116 126.002 38.8538 126.002 43.1965V78.7873H110.499V45.9623C110.523 42.5415 109.65 39.8667 107.879 37.938C106.108 36.0092 103.669 35.0449 100.564 35.0449C98.4776 35.0449 96.6398 35.4937 95.0507 36.3913C93.4616 37.289 92.2243 38.593 91.3388 40.3034C90.4533 42.0138 89.9984 44.0699 89.9741 46.4717ZM153.703 22.8902V78.7873H138.2V22.8902H153.703ZM188.434 79.5515C190.448 79.4787 192.158 79.2785 193.566 78.951C194.973 78.6235 196.064 78.3384 196.841 78.0958L194.403 66.5597C194.014 66.6325 193.456 66.7356 192.729 66.8691C192.001 67.0025 191.273 67.0692 190.545 67.0692C189.502 67.0692 188.586 66.9115 187.798 66.5961C187.009 66.2807 186.396 65.7288 185.96 64.9403C185.523 64.1518 185.305 63.0419 185.305 61.6105L185.304 34.5359L195.822 34.5353V22.8901L185.304 22.8918L185.305 9.49805H169.802L169.801 22.8918L162.16 22.8901V34.5353L169.801 34.5359L169.802 63.6484C169.78 66.9788 170.41 69.7879 171.691 72.0756L172.095 72.7463C173.647 75.1481 175.825 76.9192 178.627 78.0594C181.429 79.1997 184.698 79.697 188.434 79.5515ZM225.284 97.911C222.567 99.1362 219.292 99.7488 215.459 99.7488C213.493 99.7488 211.656 99.5971 209.945 99.2939C208.235 98.9906 206.822 98.6085 205.706 98.1475L209.199 86.5751C211.019 87.1331 212.662 87.4363 214.13 87.4849C215.598 87.5334 216.872 87.1937 217.951 86.4659C219.031 85.7381 219.91 84.5008 220.59 82.754L221.499 80.3886L201.448 22.8902H217.751L229.324 63.9396H229.906L241.588 22.8902L258 22.9629L236.274 84.8283C235.231 87.8367 233.818 90.4629 232.035 92.707C230.252 94.9512 228.001 96.6858 225.284 97.911Z" fill="white"/>
</svg>
